%TF.GenerationSoftware,KiCad,Pcbnew,(6.0.7)*%
%TF.CreationDate,2022-09-27T17:11:20+08:00*%
%TF.ProjectId,51,35312e6b-6963-4616-945f-706362585858,rev?*%
%TF.SameCoordinates,Original*%
%TF.FileFunction,Copper,L2,Bot*%
%TF.FilePolarity,Positive*%
%FSLAX46Y46*%
G04 Gerber Fmt 4.6, Leading zero omitted, Abs format (unit mm)*
G04 Created by KiCad (PCBNEW (6.0.7)) date 2022-09-27 17:11:20*
%MOMM*%
%LPD*%
G01*
G04 APERTURE LIST*
%TA.AperFunction,ComponentPad*%
%ADD10O,1.000000X2.100000*%
%TD*%
%TA.AperFunction,ComponentPad*%
%ADD11O,1.000000X1.600000*%
%TD*%
%TA.AperFunction,ComponentPad*%
%ADD12R,1.800000X1.800000*%
%TD*%
%TA.AperFunction,ComponentPad*%
%ADD13C,1.800000*%
%TD*%
%TA.AperFunction,ComponentPad*%
%ADD14R,1.700000X1.700000*%
%TD*%
%TA.AperFunction,ComponentPad*%
%ADD15O,1.700000X1.700000*%
%TD*%
%TA.AperFunction,ViaPad*%
%ADD16C,0.800000*%
%TD*%
%TA.AperFunction,Conductor*%
%ADD17C,0.250000*%
%TD*%
G04 APERTURE END LIST*
D10*
%TO.P,J1,S1,SHIELD*%
%TO.N,GND*%
X91184000Y-38182000D03*
D11*
X91184000Y-34002000D03*
X99824000Y-34002000D03*
D10*
X99824000Y-38182000D03*
%TD*%
D12*
%TO.P,SW1,1,1*%
%TO.N,GND*%
X93081500Y-42543500D03*
D13*
%TO.P,SW1,2,2*%
%TO.N,GND1*%
X98081500Y-42543500D03*
%TO.P,SW1,3,3*%
%TO.N,+5V*%
X93081500Y-48543500D03*
%TO.P,SW1,4,4*%
%TO.N,VCC*%
X98081500Y-48543500D03*
%TD*%
D14*
%TO.P,J3,1,Pin_1*%
%TO.N,GND1*%
X108204000Y-35560000D03*
D15*
%TO.P,J3,2,Pin_2*%
%TO.N,VCC*%
X108204000Y-38100000D03*
%TO.P,J3,3,Pin_3*%
%TO.N,p5_5*%
X108204000Y-40640000D03*
%TO.P,J3,4,Pin_4*%
%TO.N,p3_7*%
X108204000Y-43180000D03*
%TO.P,J3,5,Pin_5*%
%TO.N,p3_6*%
X108204000Y-45720000D03*
%TO.P,J3,6,Pin_6*%
%TO.N,p3_3*%
X108204000Y-48260000D03*
%TO.P,J3,7,Pin_7*%
%TO.N,p3_2*%
X108204000Y-50800000D03*
%TO.P,J3,8,Pin_8*%
%TO.N,p3_1*%
X108204000Y-53340000D03*
%TO.P,J3,9,Pin_9*%
%TO.N,p3_0*%
X108204000Y-55880000D03*
%TO.P,J3,10,Pin_10*%
%TO.N,VCC*%
X108204000Y-58420000D03*
%TO.P,J3,11,Pin_11*%
%TO.N,GND1*%
X108204000Y-60960000D03*
%TD*%
D14*
%TO.P,J2,1,Pin_1*%
%TO.N,GND1*%
X84328000Y-35560000D03*
D15*
%TO.P,J2,2,Pin_2*%
%TO.N,VCC*%
X84328000Y-38100000D03*
%TO.P,J2,3,Pin_3*%
%TO.N,p1_0*%
X84328000Y-40640000D03*
%TO.P,J2,4,Pin_4*%
%TO.N,p1_1*%
X84328000Y-43180000D03*
%TO.P,J2,5,Pin_5*%
%TO.N,p1_2*%
X84328000Y-45720000D03*
%TO.P,J2,6,Pin_6*%
%TO.N,p1_3*%
X84328000Y-48260000D03*
%TO.P,J2,7,Pin_7*%
%TO.N,p1_4*%
X84328000Y-50800000D03*
%TO.P,J2,8,Pin_8*%
%TO.N,p1_5*%
X84328000Y-53340000D03*
%TO.P,J2,9,Pin_9*%
%TO.N,p5_4*%
X84328000Y-55880000D03*
%TO.P,J2,10,Pin_10*%
%TO.N,VCC*%
X84328000Y-58420000D03*
%TO.P,J2,11,Pin_11*%
%TO.N,GND1*%
X84328000Y-60960000D03*
%TD*%
D16*
%TO.N,p1_0*%
X95250000Y-57404000D03*
%TO.N,p1_1*%
X95250000Y-56134000D03*
%TO.N,p1_2*%
X89240500Y-55880000D03*
%TO.N,p1_3*%
X89240500Y-57150000D03*
%TO.N,p1_4*%
X89154000Y-58420000D03*
%TO.N,p1_5*%
X89154000Y-59690000D03*
%TO.N,p5_4*%
X89154000Y-60960000D03*
%TO.N,p5_5*%
X94996000Y-62992000D03*
%TO.N,p3_7*%
X101600000Y-58674000D03*
%TO.N,p3_6*%
X101600000Y-59690000D03*
%TO.N,p3_3*%
X101600000Y-60706000D03*
%TO.N,p3_2*%
X101600000Y-61976000D03*
%TO.N,p3_1*%
X101346000Y-63246000D03*
%TO.N,p3_0*%
X101346000Y-64516000D03*
%TD*%
D17*
%TO.N,p1_0*%
X95975000Y-56679000D02*
X95975000Y-48985000D01*
X95975000Y-48985000D02*
X87630000Y-40640000D01*
X87630000Y-40640000D02*
X84328000Y-40640000D01*
X95250000Y-57404000D02*
X95975000Y-56679000D01*
%TO.N,p1_1*%
X95250000Y-48979588D02*
X89450412Y-43180000D01*
X89450412Y-43180000D02*
X84328000Y-43180000D01*
X95250000Y-56134000D02*
X95250000Y-48979588D01*
%TO.N,p1_2*%
X88900000Y-45720000D02*
X84328000Y-45720000D01*
X89240500Y-55880000D02*
X88900000Y-55539500D01*
X88900000Y-55539500D02*
X88900000Y-45720000D01*
%TO.N,p1_3*%
X88646000Y-57150000D02*
X88138000Y-56642000D01*
X89240500Y-57150000D02*
X88646000Y-57150000D01*
X88138000Y-48260000D02*
X84328000Y-48260000D01*
X88138000Y-56642000D02*
X88138000Y-48260000D01*
%TO.N,p1_4*%
X89154000Y-58420000D02*
X88138000Y-58420000D01*
X87630000Y-57912000D02*
X87630000Y-50800000D01*
X88138000Y-58420000D02*
X87630000Y-57912000D01*
X87630000Y-50800000D02*
X84328000Y-50800000D01*
%TO.N,p1_5*%
X86868000Y-53594000D02*
X86614000Y-53340000D01*
X86868000Y-58674000D02*
X86868000Y-53594000D01*
X89154000Y-59690000D02*
X87884000Y-59690000D01*
X87884000Y-59690000D02*
X86868000Y-58674000D01*
X86614000Y-53340000D02*
X84328000Y-53340000D01*
%TO.N,p5_4*%
X86106000Y-59944000D02*
X86106000Y-56134000D01*
X85852000Y-55880000D02*
X84328000Y-55880000D01*
X87122000Y-60960000D02*
X86106000Y-59944000D01*
X86106000Y-56134000D02*
X85852000Y-55880000D01*
X89154000Y-60960000D02*
X87122000Y-60960000D01*
%TO.N,p5_5*%
X96856500Y-61131500D02*
X96856500Y-41827500D01*
X94996000Y-62992000D02*
X96856500Y-61131500D01*
X98044000Y-40640000D02*
X108204000Y-40640000D01*
X96856500Y-41827500D02*
X98044000Y-40640000D01*
%TO.N,p3_7*%
X103124000Y-43180000D02*
X108204000Y-43180000D01*
X101600000Y-44704000D02*
X103124000Y-43180000D01*
X101600000Y-58674000D02*
X101600000Y-44704000D01*
%TO.N,p3_6*%
X101600000Y-59690000D02*
X101609305Y-59690000D01*
X102616000Y-46228000D02*
X103124000Y-45720000D01*
X101609305Y-59690000D02*
X102616000Y-58683305D01*
X103124000Y-45720000D02*
X108204000Y-45720000D01*
X102616000Y-58683305D02*
X102616000Y-46228000D01*
%TO.N,p3_3*%
X101609305Y-60706000D02*
X103632000Y-58683305D01*
X103632000Y-48260000D02*
X108204000Y-48260000D01*
X101600000Y-60706000D02*
X101609305Y-60706000D01*
X103632000Y-58683305D02*
X103632000Y-48260000D01*
%TO.N,p3_2*%
X101600000Y-61976000D02*
X104648000Y-58928000D01*
X104648000Y-50800000D02*
X108204000Y-50800000D01*
X104648000Y-58928000D02*
X104648000Y-50800000D01*
%TO.N,p3_1*%
X106680000Y-53340000D02*
X108204000Y-53340000D01*
X105664000Y-54356000D02*
X106680000Y-53340000D01*
X101355305Y-63246000D02*
X105664000Y-58937305D01*
X101346000Y-63246000D02*
X101355305Y-63246000D01*
X105664000Y-58937305D02*
X105664000Y-54356000D01*
%TO.N,p3_0*%
X101346000Y-64516000D02*
X106426000Y-59436000D01*
X106426000Y-59436000D02*
X106426000Y-57658000D01*
X106426000Y-57658000D02*
X108204000Y-55880000D01*
%TD*%
M02*
