%TF.GenerationSoftware,KiCad,Pcbnew,(6.0.7)*%
%TF.CreationDate,2022-09-27T17:11:20+08:00*%
%TF.ProjectId,51,35312e6b-6963-4616-945f-706362585858,rev?*%
%TF.SameCoordinates,Original*%
%TF.FileFunction,Soldermask,Top*%
%TF.FilePolarity,Negative*%
%FSLAX46Y46*%
G04 Gerber Fmt 4.6, Leading zero omitted, Abs format (unit mm)*
G04 Created by KiCad (PCBNEW (6.0.7)) date 2022-09-27 17:11:20*
%MOMM*%
%LPD*%
G01*
G04 APERTURE LIST*
G04 Aperture macros list*
%AMRoundRect*
0 Rectangle with rounded corners*
0 $1 Rounding radius*
0 $2 $3 $4 $5 $6 $7 $8 $9 X,Y pos of 4 corners*
0 Add a 4 corners polygon primitive as box body*
4,1,4,$2,$3,$4,$5,$6,$7,$8,$9,$2,$3,0*
0 Add four circle primitives for the rounded corners*
1,1,$1+$1,$2,$3*
1,1,$1+$1,$4,$5*
1,1,$1+$1,$6,$7*
1,1,$1+$1,$8,$9*
0 Add four rect primitives between the rounded corners*
20,1,$1+$1,$2,$3,$4,$5,0*
20,1,$1+$1,$4,$5,$6,$7,0*
20,1,$1+$1,$6,$7,$8,$9,0*
20,1,$1+$1,$8,$9,$2,$3,0*%
G04 Aperture macros list end*
%ADD10RoundRect,0.250000X-0.475000X0.250000X-0.475000X-0.250000X0.475000X-0.250000X0.475000X0.250000X0*%
%ADD11RoundRect,0.250000X-0.375000X-0.625000X0.375000X-0.625000X0.375000X0.625000X-0.375000X0.625000X0*%
%ADD12RoundRect,0.250000X0.375000X0.625000X-0.375000X0.625000X-0.375000X-0.625000X0.375000X-0.625000X0*%
%ADD13RoundRect,0.250000X-0.262500X-0.450000X0.262500X-0.450000X0.262500X0.450000X-0.262500X0.450000X0*%
%ADD14C,0.650000*%
%ADD15R,0.600000X1.450000*%
%ADD16R,0.300000X1.450000*%
%ADD17O,1.000000X2.100000*%
%ADD18O,1.000000X1.600000*%
%ADD19R,1.800000X1.800000*%
%ADD20C,1.800000*%
%ADD21R,1.700000X1.700000*%
%ADD22O,1.700000X1.700000*%
%ADD23RoundRect,0.137500X-0.662500X-0.137500X0.662500X-0.137500X0.662500X0.137500X-0.662500X0.137500X0*%
G04 APERTURE END LIST*
D10*
%TO.C,C2*%
X90424000Y-62550000D03*
X90424000Y-64450000D03*
%TD*%
%TO.C,C1*%
X88138000Y-62550000D03*
X88138000Y-64450000D03*
%TD*%
D11*
%TO.C,D2*%
X88516000Y-52324000D03*
X91316000Y-52324000D03*
%TD*%
D12*
%TO.C,D1*%
X104119500Y-52324000D03*
X101319500Y-52324000D03*
%TD*%
D13*
%TO.C,R2*%
X93575500Y-52324000D03*
X95400500Y-52324000D03*
%TD*%
D14*
%TO.C,J1*%
X92614000Y-37652000D03*
X98394000Y-37652000D03*
D15*
X98754000Y-39097000D03*
X97954000Y-39097000D03*
D16*
X96754000Y-39097000D03*
X95754000Y-39097000D03*
X95254000Y-39097000D03*
X94254000Y-39097000D03*
D15*
X93054000Y-39097000D03*
X92254000Y-39097000D03*
X92254000Y-39097000D03*
X93054000Y-39097000D03*
D16*
X93754000Y-39097000D03*
X94754000Y-39097000D03*
X96254000Y-39097000D03*
X97254000Y-39097000D03*
D15*
X97954000Y-39097000D03*
X98754000Y-39097000D03*
D17*
X91184000Y-38182000D03*
D18*
X91184000Y-34002000D03*
X99824000Y-34002000D03*
D17*
X99824000Y-38182000D03*
%TD*%
D19*
%TO.C,SW1*%
X93081500Y-42543500D03*
D20*
X98081500Y-42543500D03*
X93081500Y-48543500D03*
X98081500Y-48543500D03*
%TD*%
D13*
%TO.C,R1*%
X97639500Y-52324000D03*
X99464500Y-52324000D03*
%TD*%
D21*
%TO.C,J3*%
X108204000Y-35560000D03*
D22*
X108204000Y-38100000D03*
X108204000Y-40640000D03*
X108204000Y-43180000D03*
X108204000Y-45720000D03*
X108204000Y-48260000D03*
X108204000Y-50800000D03*
X108204000Y-53340000D03*
X108204000Y-55880000D03*
X108204000Y-58420000D03*
X108204000Y-60960000D03*
%TD*%
D23*
%TO.C,U1*%
X92854000Y-56007000D03*
X92854000Y-57277000D03*
X92854000Y-58547000D03*
X92854000Y-59817000D03*
X92854000Y-61087000D03*
X92854000Y-62357000D03*
X92854000Y-63627000D03*
X92854000Y-64897000D03*
X98154000Y-64897000D03*
X98154000Y-63627000D03*
X98154000Y-62357000D03*
X98154000Y-61087000D03*
X98154000Y-59817000D03*
X98154000Y-58547000D03*
X98154000Y-57277000D03*
X98154000Y-56007000D03*
%TD*%
D21*
%TO.C,J2*%
X84328000Y-35560000D03*
D22*
X84328000Y-38100000D03*
X84328000Y-40640000D03*
X84328000Y-43180000D03*
X84328000Y-45720000D03*
X84328000Y-48260000D03*
X84328000Y-50800000D03*
X84328000Y-53340000D03*
X84328000Y-55880000D03*
X84328000Y-58420000D03*
X84328000Y-60960000D03*
%TD*%
M02*
