%TF.GenerationSoftware,KiCad,Pcbnew,(6.0.7)*%
%TF.CreationDate,2022-09-27T17:10:28+08:00*%
%TF.ProjectId,51,35312e6b-6963-4616-945f-706362585858,rev?*%
%TF.SameCoordinates,Original*%
%TF.FileFunction,Drillmap*%
%TF.FilePolarity,Positive*%
%FSLAX45Y45*%
G04 Gerber Fmt 4.5, Leading zero omitted, Abs format (unit mm)*
G04 Created by KiCad (PCBNEW (6.0.7)) date 2022-09-27 17:10:28*
%MOMM*%
%LPD*%
G01*
G04 APERTURE LIST*
%ADD10C,0.100000*%
%ADD11C,0.200000*%
%ADD12C,0.040000*%
%ADD13C,0.060000*%
%ADD14C,0.090000*%
G04 APERTURE END LIST*
D10*
X11455400Y-3073400D02*
G75*
G03*
X11404600Y-3022600I-50800J0D01*
G01*
X11404600Y-6680200D02*
G75*
G03*
X11455400Y-6629400I0J50800D01*
G01*
X7874000Y-3022600D02*
X11404600Y-3022600D01*
X7823200Y-6629400D02*
X7823200Y-3073400D01*
X11455400Y-3073400D02*
X11455400Y-6629400D01*
X7823200Y-6629400D02*
G75*
G03*
X7874000Y-6680200I50800J0D01*
G01*
X7874000Y-3022600D02*
G75*
G03*
X7823200Y-3073400I0J-50800D01*
G01*
X11404600Y-6680200D02*
X7874000Y-6680200D01*
D11*
D12*
X8895400Y-5822000D02*
X8935400Y-5862000D01*
X8935400Y-5822000D02*
X8895400Y-5862000D01*
X8895400Y-5949000D02*
X8935400Y-5989000D01*
X8935400Y-5949000D02*
X8895400Y-5989000D01*
X8895400Y-6076000D02*
X8935400Y-6116000D01*
X8935400Y-6076000D02*
X8895400Y-6116000D01*
X8904050Y-5568000D02*
X8944050Y-5608000D01*
X8944050Y-5568000D02*
X8904050Y-5608000D01*
X8904050Y-5695000D02*
X8944050Y-5735000D01*
X8944050Y-5695000D02*
X8904050Y-5735000D01*
X9479600Y-6279200D02*
X9519600Y-6319200D01*
X9519600Y-6279200D02*
X9479600Y-6319200D01*
X9505000Y-5593400D02*
X9545000Y-5633400D01*
X9545000Y-5593400D02*
X9505000Y-5633400D01*
X9505000Y-5720400D02*
X9545000Y-5760400D01*
X9545000Y-5720400D02*
X9505000Y-5760400D01*
X10114600Y-6304600D02*
X10154600Y-6344600D01*
X10154600Y-6304600D02*
X10114600Y-6344600D01*
X10114600Y-6431600D02*
X10154600Y-6471600D01*
X10154600Y-6431600D02*
X10114600Y-6471600D01*
X10140000Y-5847400D02*
X10180000Y-5887400D01*
X10180000Y-5847400D02*
X10140000Y-5887400D01*
X10140000Y-5949000D02*
X10180000Y-5989000D01*
X10180000Y-5949000D02*
X10140000Y-5989000D01*
X10140000Y-6050600D02*
X10180000Y-6090600D01*
X10180000Y-6050600D02*
X10140000Y-6090600D01*
X10140000Y-6177600D02*
X10180000Y-6217600D01*
X10180000Y-6177600D02*
X10140000Y-6217600D01*
D13*
X9148400Y-3400200D02*
G75*
G03*
X9148400Y-3400200I-30000J0D01*
G01*
D11*
X9148400Y-3430200D02*
X9148400Y-3370200D01*
X9088400Y-3430200D02*
X9088400Y-3370200D01*
X9148400Y-3370200D02*
G75*
G03*
X9088400Y-3370200I-30000J0D01*
G01*
X9088400Y-3430200D02*
G75*
G03*
X9148400Y-3430200I30000J0D01*
G01*
D13*
X9148400Y-3818200D02*
G75*
G03*
X9148400Y-3818200I-30000J0D01*
G01*
D11*
X9148400Y-3873200D02*
X9148400Y-3763200D01*
X9088400Y-3873200D02*
X9088400Y-3763200D01*
X9148400Y-3763200D02*
G75*
G03*
X9088400Y-3763200I-30000J0D01*
G01*
X9088400Y-3873200D02*
G75*
G03*
X9148400Y-3873200I30000J0D01*
G01*
D13*
X10012400Y-3400200D02*
G75*
G03*
X10012400Y-3400200I-30000J0D01*
G01*
D11*
X10012400Y-3430200D02*
X10012400Y-3370200D01*
X9952400Y-3430200D02*
X9952400Y-3370200D01*
X10012400Y-3370200D02*
G75*
G03*
X9952400Y-3370200I-30000J0D01*
G01*
X9952400Y-3430200D02*
G75*
G03*
X10012400Y-3430200I30000J0D01*
G01*
D13*
X10012400Y-3818200D02*
G75*
G03*
X10012400Y-3818200I-30000J0D01*
G01*
D11*
X10012400Y-3873200D02*
X10012400Y-3763200D01*
X9952400Y-3873200D02*
X9952400Y-3763200D01*
X10012400Y-3763200D02*
G75*
G03*
X9952400Y-3763200I-30000J0D01*
G01*
X9952400Y-3873200D02*
G75*
G03*
X10012400Y-3873200I30000J0D01*
G01*
D14*
X9308150Y-4209350D02*
X9308150Y-4299350D01*
X9263150Y-4254350D02*
X9353150Y-4254350D01*
X9308150Y-4809350D02*
X9308150Y-4899350D01*
X9263150Y-4854350D02*
X9353150Y-4854350D01*
X9808150Y-4209350D02*
X9808150Y-4299350D01*
X9763150Y-4254350D02*
X9853150Y-4254350D01*
X9808150Y-4809350D02*
X9808150Y-4899350D01*
X9763150Y-4854350D02*
X9853150Y-4854350D01*
D10*
X8468156Y-3591356D02*
X8468156Y-3520644D01*
X8397444Y-3520644D01*
X8397444Y-3591356D01*
X8468156Y-3591356D01*
X8468156Y-3845356D02*
X8468156Y-3774644D01*
X8397444Y-3774644D01*
X8397444Y-3845356D01*
X8468156Y-3845356D01*
X8468156Y-4099356D02*
X8468156Y-4028644D01*
X8397444Y-4028644D01*
X8397444Y-4099356D01*
X8468156Y-4099356D01*
X8468156Y-4353356D02*
X8468156Y-4282644D01*
X8397444Y-4282644D01*
X8397444Y-4353356D01*
X8468156Y-4353356D01*
X8468156Y-4607356D02*
X8468156Y-4536644D01*
X8397444Y-4536644D01*
X8397444Y-4607356D01*
X8468156Y-4607356D01*
X8468156Y-4861356D02*
X8468156Y-4790644D01*
X8397444Y-4790644D01*
X8397444Y-4861356D01*
X8468156Y-4861356D01*
X8468156Y-5115356D02*
X8468156Y-5044644D01*
X8397444Y-5044644D01*
X8397444Y-5115356D01*
X8468156Y-5115356D01*
X8468156Y-5369356D02*
X8468156Y-5298644D01*
X8397444Y-5298644D01*
X8397444Y-5369356D01*
X8468156Y-5369356D01*
X8468156Y-5623356D02*
X8468156Y-5552644D01*
X8397444Y-5552644D01*
X8397444Y-5623356D01*
X8468156Y-5623356D01*
X8468156Y-5877356D02*
X8468156Y-5806644D01*
X8397444Y-5806644D01*
X8397444Y-5877356D01*
X8468156Y-5877356D01*
X8468156Y-6131356D02*
X8468156Y-6060644D01*
X8397444Y-6060644D01*
X8397444Y-6131356D01*
X8468156Y-6131356D01*
X10855756Y-3591356D02*
X10855756Y-3520644D01*
X10785044Y-3520644D01*
X10785044Y-3591356D01*
X10855756Y-3591356D01*
X10855756Y-3845356D02*
X10855756Y-3774644D01*
X10785044Y-3774644D01*
X10785044Y-3845356D01*
X10855756Y-3845356D01*
X10855756Y-4099356D02*
X10855756Y-4028644D01*
X10785044Y-4028644D01*
X10785044Y-4099356D01*
X10855756Y-4099356D01*
X10855756Y-4353356D02*
X10855756Y-4282644D01*
X10785044Y-4282644D01*
X10785044Y-4353356D01*
X10855756Y-4353356D01*
X10855756Y-4607356D02*
X10855756Y-4536644D01*
X10785044Y-4536644D01*
X10785044Y-4607356D01*
X10855756Y-4607356D01*
X10855756Y-4861356D02*
X10855756Y-4790644D01*
X10785044Y-4790644D01*
X10785044Y-4861356D01*
X10855756Y-4861356D01*
X10855756Y-5115356D02*
X10855756Y-5044644D01*
X10785044Y-5044644D01*
X10785044Y-5115356D01*
X10855756Y-5115356D01*
X10855756Y-5369356D02*
X10855756Y-5298644D01*
X10785044Y-5298644D01*
X10785044Y-5369356D01*
X10855756Y-5369356D01*
X10855756Y-5623356D02*
X10855756Y-5552644D01*
X10785044Y-5552644D01*
X10785044Y-5623356D01*
X10855756Y-5623356D01*
X10855756Y-5877356D02*
X10855756Y-5806644D01*
X10785044Y-5806644D01*
X10785044Y-5877356D01*
X10855756Y-5877356D01*
X10855756Y-6131356D02*
X10855756Y-6060644D01*
X10785044Y-6060644D01*
X10785044Y-6131356D01*
X10855756Y-6131356D01*
D11*
X8075819Y-6995676D02*
X8075819Y-6795676D01*
X8123438Y-6795676D01*
X8152009Y-6805200D01*
X8171057Y-6824248D01*
X8180581Y-6843295D01*
X8190105Y-6881390D01*
X8190105Y-6909962D01*
X8180581Y-6948057D01*
X8171057Y-6967105D01*
X8152009Y-6986152D01*
X8123438Y-6995676D01*
X8075819Y-6995676D01*
X8275819Y-6995676D02*
X8275819Y-6862343D01*
X8275819Y-6900438D02*
X8285343Y-6881390D01*
X8294867Y-6871867D01*
X8313914Y-6862343D01*
X8332962Y-6862343D01*
X8399629Y-6995676D02*
X8399629Y-6862343D01*
X8399629Y-6795676D02*
X8390105Y-6805200D01*
X8399629Y-6814724D01*
X8409152Y-6805200D01*
X8399629Y-6795676D01*
X8399629Y-6814724D01*
X8523438Y-6995676D02*
X8504390Y-6986152D01*
X8494867Y-6967105D01*
X8494867Y-6795676D01*
X8628200Y-6995676D02*
X8609152Y-6986152D01*
X8599629Y-6967105D01*
X8599629Y-6795676D01*
X8856771Y-6995676D02*
X8856771Y-6795676D01*
X8923438Y-6938533D01*
X8990105Y-6795676D01*
X8990105Y-6995676D01*
X9171057Y-6995676D02*
X9171057Y-6890914D01*
X9161533Y-6871867D01*
X9142486Y-6862343D01*
X9104390Y-6862343D01*
X9085343Y-6871867D01*
X9171057Y-6986152D02*
X9152010Y-6995676D01*
X9104390Y-6995676D01*
X9085343Y-6986152D01*
X9075819Y-6967105D01*
X9075819Y-6948057D01*
X9085343Y-6929009D01*
X9104390Y-6919486D01*
X9152010Y-6919486D01*
X9171057Y-6909962D01*
X9266295Y-6862343D02*
X9266295Y-7062343D01*
X9266295Y-6871867D02*
X9285343Y-6862343D01*
X9323438Y-6862343D01*
X9342486Y-6871867D01*
X9352010Y-6881390D01*
X9361533Y-6900438D01*
X9361533Y-6957581D01*
X9352010Y-6976628D01*
X9342486Y-6986152D01*
X9323438Y-6995676D01*
X9285343Y-6995676D01*
X9266295Y-6986152D01*
X9447248Y-6976628D02*
X9456771Y-6986152D01*
X9447248Y-6995676D01*
X9437724Y-6986152D01*
X9447248Y-6976628D01*
X9447248Y-6995676D01*
X9447248Y-6871867D02*
X9456771Y-6881390D01*
X9447248Y-6890914D01*
X9437724Y-6881390D01*
X9447248Y-6871867D01*
X9447248Y-6890914D01*
D12*
X7778200Y-7305200D02*
X7818200Y-7345200D01*
X7818200Y-7305200D02*
X7778200Y-7345200D01*
D11*
X8113914Y-7215676D02*
X8132962Y-7215676D01*
X8152009Y-7225200D01*
X8161533Y-7234724D01*
X8171057Y-7253771D01*
X8180581Y-7291867D01*
X8180581Y-7339486D01*
X8171057Y-7377581D01*
X8161533Y-7396628D01*
X8152009Y-7406152D01*
X8132962Y-7415676D01*
X8113914Y-7415676D01*
X8094867Y-7406152D01*
X8085343Y-7396628D01*
X8075819Y-7377581D01*
X8066295Y-7339486D01*
X8066295Y-7291867D01*
X8075819Y-7253771D01*
X8085343Y-7234724D01*
X8094867Y-7225200D01*
X8113914Y-7215676D01*
X8266295Y-7396628D02*
X8275819Y-7406152D01*
X8266295Y-7415676D01*
X8256771Y-7406152D01*
X8266295Y-7396628D01*
X8266295Y-7415676D01*
X8447248Y-7282343D02*
X8447248Y-7415676D01*
X8399629Y-7206152D02*
X8352009Y-7349009D01*
X8475819Y-7349009D01*
X8590105Y-7215676D02*
X8609152Y-7215676D01*
X8628200Y-7225200D01*
X8637724Y-7234724D01*
X8647248Y-7253771D01*
X8656771Y-7291867D01*
X8656771Y-7339486D01*
X8647248Y-7377581D01*
X8637724Y-7396628D01*
X8628200Y-7406152D01*
X8609152Y-7415676D01*
X8590105Y-7415676D01*
X8571057Y-7406152D01*
X8561533Y-7396628D01*
X8552010Y-7377581D01*
X8542486Y-7339486D01*
X8542486Y-7291867D01*
X8552010Y-7253771D01*
X8561533Y-7234724D01*
X8571057Y-7225200D01*
X8590105Y-7215676D01*
X8780581Y-7215676D02*
X8799629Y-7215676D01*
X8818676Y-7225200D01*
X8828200Y-7234724D01*
X8837724Y-7253771D01*
X8847248Y-7291867D01*
X8847248Y-7339486D01*
X8837724Y-7377581D01*
X8828200Y-7396628D01*
X8818676Y-7406152D01*
X8799629Y-7415676D01*
X8780581Y-7415676D01*
X8761533Y-7406152D01*
X8752010Y-7396628D01*
X8742486Y-7377581D01*
X8732962Y-7339486D01*
X8732962Y-7291867D01*
X8742486Y-7253771D01*
X8752010Y-7234724D01*
X8761533Y-7225200D01*
X8780581Y-7215676D01*
X8932962Y-7415676D02*
X8932962Y-7282343D01*
X8932962Y-7301390D02*
X8942486Y-7291867D01*
X8961533Y-7282343D01*
X8990105Y-7282343D01*
X9009152Y-7291867D01*
X9018676Y-7310914D01*
X9018676Y-7415676D01*
X9018676Y-7310914D02*
X9028200Y-7291867D01*
X9047248Y-7282343D01*
X9075819Y-7282343D01*
X9094867Y-7291867D01*
X9104390Y-7310914D01*
X9104390Y-7415676D01*
X9199629Y-7415676D02*
X9199629Y-7282343D01*
X9199629Y-7301390D02*
X9209152Y-7291867D01*
X9228200Y-7282343D01*
X9256771Y-7282343D01*
X9275819Y-7291867D01*
X9285343Y-7310914D01*
X9285343Y-7415676D01*
X9285343Y-7310914D02*
X9294867Y-7291867D01*
X9313914Y-7282343D01*
X9342486Y-7282343D01*
X9361533Y-7291867D01*
X9371057Y-7310914D01*
X9371057Y-7415676D01*
X9761533Y-7206152D02*
X9590105Y-7463295D01*
X10018676Y-7215676D02*
X10037724Y-7215676D01*
X10056771Y-7225200D01*
X10066295Y-7234724D01*
X10075819Y-7253771D01*
X10085343Y-7291867D01*
X10085343Y-7339486D01*
X10075819Y-7377581D01*
X10066295Y-7396628D01*
X10056771Y-7406152D01*
X10037724Y-7415676D01*
X10018676Y-7415676D01*
X9999629Y-7406152D01*
X9990105Y-7396628D01*
X9980581Y-7377581D01*
X9971057Y-7339486D01*
X9971057Y-7291867D01*
X9980581Y-7253771D01*
X9990105Y-7234724D01*
X9999629Y-7225200D01*
X10018676Y-7215676D01*
X10171057Y-7396628D02*
X10180581Y-7406152D01*
X10171057Y-7415676D01*
X10161533Y-7406152D01*
X10171057Y-7396628D01*
X10171057Y-7415676D01*
X10304390Y-7215676D02*
X10323438Y-7215676D01*
X10342486Y-7225200D01*
X10352010Y-7234724D01*
X10361533Y-7253771D01*
X10371057Y-7291867D01*
X10371057Y-7339486D01*
X10361533Y-7377581D01*
X10352010Y-7396628D01*
X10342486Y-7406152D01*
X10323438Y-7415676D01*
X10304390Y-7415676D01*
X10285343Y-7406152D01*
X10275819Y-7396628D01*
X10266295Y-7377581D01*
X10256771Y-7339486D01*
X10256771Y-7291867D01*
X10266295Y-7253771D01*
X10275819Y-7234724D01*
X10285343Y-7225200D01*
X10304390Y-7215676D01*
X10561533Y-7415676D02*
X10447248Y-7415676D01*
X10504390Y-7415676D02*
X10504390Y-7215676D01*
X10485343Y-7244248D01*
X10466295Y-7263295D01*
X10447248Y-7272819D01*
X10742486Y-7215676D02*
X10647248Y-7215676D01*
X10637724Y-7310914D01*
X10647248Y-7301390D01*
X10666295Y-7291867D01*
X10713914Y-7291867D01*
X10732962Y-7301390D01*
X10742486Y-7310914D01*
X10752010Y-7329962D01*
X10752010Y-7377581D01*
X10742486Y-7396628D01*
X10732962Y-7406152D01*
X10713914Y-7415676D01*
X10666295Y-7415676D01*
X10647248Y-7406152D01*
X10637724Y-7396628D01*
X10818676Y-7215676D02*
X10952010Y-7215676D01*
X10866295Y-7415676D01*
X11018676Y-7215676D02*
X11018676Y-7253771D01*
X11094867Y-7215676D02*
X11094867Y-7253771D01*
X11390105Y-7491867D02*
X11380581Y-7482343D01*
X11361533Y-7453771D01*
X11352009Y-7434724D01*
X11342486Y-7406152D01*
X11332962Y-7358533D01*
X11332962Y-7320438D01*
X11342486Y-7272819D01*
X11352009Y-7244248D01*
X11361533Y-7225200D01*
X11380581Y-7196628D01*
X11390105Y-7187105D01*
X11571057Y-7415676D02*
X11456771Y-7415676D01*
X11513914Y-7415676D02*
X11513914Y-7215676D01*
X11494867Y-7244248D01*
X11475819Y-7263295D01*
X11456771Y-7272819D01*
X11742486Y-7282343D02*
X11742486Y-7415676D01*
X11694867Y-7206152D02*
X11647248Y-7349009D01*
X11771057Y-7349009D01*
X11999628Y-7415676D02*
X11999628Y-7215676D01*
X12085343Y-7415676D02*
X12085343Y-7310914D01*
X12075819Y-7291867D01*
X12056771Y-7282343D01*
X12028200Y-7282343D01*
X12009152Y-7291867D01*
X11999628Y-7301390D01*
X12209152Y-7415676D02*
X12190105Y-7406152D01*
X12180581Y-7396628D01*
X12171057Y-7377581D01*
X12171057Y-7320438D01*
X12180581Y-7301390D01*
X12190105Y-7291867D01*
X12209152Y-7282343D01*
X12237724Y-7282343D01*
X12256771Y-7291867D01*
X12266295Y-7301390D01*
X12275819Y-7320438D01*
X12275819Y-7377581D01*
X12266295Y-7396628D01*
X12256771Y-7406152D01*
X12237724Y-7415676D01*
X12209152Y-7415676D01*
X12390105Y-7415676D02*
X12371057Y-7406152D01*
X12361533Y-7387105D01*
X12361533Y-7215676D01*
X12542486Y-7406152D02*
X12523438Y-7415676D01*
X12485343Y-7415676D01*
X12466295Y-7406152D01*
X12456771Y-7387105D01*
X12456771Y-7310914D01*
X12466295Y-7291867D01*
X12485343Y-7282343D01*
X12523438Y-7282343D01*
X12542486Y-7291867D01*
X12552009Y-7310914D01*
X12552009Y-7329962D01*
X12456771Y-7349009D01*
X12628200Y-7406152D02*
X12647248Y-7415676D01*
X12685343Y-7415676D01*
X12704390Y-7406152D01*
X12713914Y-7387105D01*
X12713914Y-7377581D01*
X12704390Y-7358533D01*
X12685343Y-7349009D01*
X12656771Y-7349009D01*
X12637724Y-7339486D01*
X12628200Y-7320438D01*
X12628200Y-7310914D01*
X12637724Y-7291867D01*
X12656771Y-7282343D01*
X12685343Y-7282343D01*
X12704390Y-7291867D01*
X12780581Y-7491867D02*
X12790105Y-7482343D01*
X12809152Y-7453771D01*
X12818676Y-7434724D01*
X12828200Y-7406152D01*
X12837724Y-7358533D01*
X12837724Y-7320438D01*
X12828200Y-7272819D01*
X12818676Y-7244248D01*
X12809152Y-7225200D01*
X12790105Y-7196628D01*
X12780581Y-7187105D01*
D13*
X7818200Y-7589200D02*
G75*
G03*
X7818200Y-7589200I-30000J0D01*
G01*
D11*
X8113914Y-7479676D02*
X8132962Y-7479676D01*
X8152009Y-7489200D01*
X8161533Y-7498724D01*
X8171057Y-7517771D01*
X8180581Y-7555867D01*
X8180581Y-7603486D01*
X8171057Y-7641581D01*
X8161533Y-7660628D01*
X8152009Y-7670152D01*
X8132962Y-7679676D01*
X8113914Y-7679676D01*
X8094867Y-7670152D01*
X8085343Y-7660628D01*
X8075819Y-7641581D01*
X8066295Y-7603486D01*
X8066295Y-7555867D01*
X8075819Y-7517771D01*
X8085343Y-7498724D01*
X8094867Y-7489200D01*
X8113914Y-7479676D01*
X8266295Y-7660628D02*
X8275819Y-7670152D01*
X8266295Y-7679676D01*
X8256771Y-7670152D01*
X8266295Y-7660628D01*
X8266295Y-7679676D01*
X8447248Y-7479676D02*
X8409152Y-7479676D01*
X8390105Y-7489200D01*
X8380581Y-7498724D01*
X8361533Y-7527295D01*
X8352009Y-7565390D01*
X8352009Y-7641581D01*
X8361533Y-7660628D01*
X8371057Y-7670152D01*
X8390105Y-7679676D01*
X8428200Y-7679676D01*
X8447248Y-7670152D01*
X8456771Y-7660628D01*
X8466295Y-7641581D01*
X8466295Y-7593962D01*
X8456771Y-7574914D01*
X8447248Y-7565390D01*
X8428200Y-7555867D01*
X8390105Y-7555867D01*
X8371057Y-7565390D01*
X8361533Y-7574914D01*
X8352009Y-7593962D01*
X8590105Y-7479676D02*
X8609152Y-7479676D01*
X8628200Y-7489200D01*
X8637724Y-7498724D01*
X8647248Y-7517771D01*
X8656771Y-7555867D01*
X8656771Y-7603486D01*
X8647248Y-7641581D01*
X8637724Y-7660628D01*
X8628200Y-7670152D01*
X8609152Y-7679676D01*
X8590105Y-7679676D01*
X8571057Y-7670152D01*
X8561533Y-7660628D01*
X8552010Y-7641581D01*
X8542486Y-7603486D01*
X8542486Y-7555867D01*
X8552010Y-7517771D01*
X8561533Y-7498724D01*
X8571057Y-7489200D01*
X8590105Y-7479676D01*
X8780581Y-7479676D02*
X8799629Y-7479676D01*
X8818676Y-7489200D01*
X8828200Y-7498724D01*
X8837724Y-7517771D01*
X8847248Y-7555867D01*
X8847248Y-7603486D01*
X8837724Y-7641581D01*
X8828200Y-7660628D01*
X8818676Y-7670152D01*
X8799629Y-7679676D01*
X8780581Y-7679676D01*
X8761533Y-7670152D01*
X8752010Y-7660628D01*
X8742486Y-7641581D01*
X8732962Y-7603486D01*
X8732962Y-7555867D01*
X8742486Y-7517771D01*
X8752010Y-7498724D01*
X8761533Y-7489200D01*
X8780581Y-7479676D01*
X8932962Y-7679676D02*
X8932962Y-7546343D01*
X8932962Y-7565390D02*
X8942486Y-7555867D01*
X8961533Y-7546343D01*
X8990105Y-7546343D01*
X9009152Y-7555867D01*
X9018676Y-7574914D01*
X9018676Y-7679676D01*
X9018676Y-7574914D02*
X9028200Y-7555867D01*
X9047248Y-7546343D01*
X9075819Y-7546343D01*
X9094867Y-7555867D01*
X9104390Y-7574914D01*
X9104390Y-7679676D01*
X9199629Y-7679676D02*
X9199629Y-7546343D01*
X9199629Y-7565390D02*
X9209152Y-7555867D01*
X9228200Y-7546343D01*
X9256771Y-7546343D01*
X9275819Y-7555867D01*
X9285343Y-7574914D01*
X9285343Y-7679676D01*
X9285343Y-7574914D02*
X9294867Y-7555867D01*
X9313914Y-7546343D01*
X9342486Y-7546343D01*
X9361533Y-7555867D01*
X9371057Y-7574914D01*
X9371057Y-7679676D01*
X9761533Y-7470152D02*
X9590105Y-7727295D01*
X10018676Y-7479676D02*
X10037724Y-7479676D01*
X10056771Y-7489200D01*
X10066295Y-7498724D01*
X10075819Y-7517771D01*
X10085343Y-7555867D01*
X10085343Y-7603486D01*
X10075819Y-7641581D01*
X10066295Y-7660628D01*
X10056771Y-7670152D01*
X10037724Y-7679676D01*
X10018676Y-7679676D01*
X9999629Y-7670152D01*
X9990105Y-7660628D01*
X9980581Y-7641581D01*
X9971057Y-7603486D01*
X9971057Y-7555867D01*
X9980581Y-7517771D01*
X9990105Y-7498724D01*
X9999629Y-7489200D01*
X10018676Y-7479676D01*
X10171057Y-7660628D02*
X10180581Y-7670152D01*
X10171057Y-7679676D01*
X10161533Y-7670152D01*
X10171057Y-7660628D01*
X10171057Y-7679676D01*
X10304390Y-7479676D02*
X10323438Y-7479676D01*
X10342486Y-7489200D01*
X10352010Y-7498724D01*
X10361533Y-7517771D01*
X10371057Y-7555867D01*
X10371057Y-7603486D01*
X10361533Y-7641581D01*
X10352010Y-7660628D01*
X10342486Y-7670152D01*
X10323438Y-7679676D01*
X10304390Y-7679676D01*
X10285343Y-7670152D01*
X10275819Y-7660628D01*
X10266295Y-7641581D01*
X10256771Y-7603486D01*
X10256771Y-7555867D01*
X10266295Y-7517771D01*
X10275819Y-7498724D01*
X10285343Y-7489200D01*
X10304390Y-7479676D01*
X10447248Y-7498724D02*
X10456771Y-7489200D01*
X10475819Y-7479676D01*
X10523438Y-7479676D01*
X10542486Y-7489200D01*
X10552010Y-7498724D01*
X10561533Y-7517771D01*
X10561533Y-7536819D01*
X10552010Y-7565390D01*
X10437724Y-7679676D01*
X10561533Y-7679676D01*
X10628200Y-7479676D02*
X10752010Y-7479676D01*
X10685343Y-7555867D01*
X10713914Y-7555867D01*
X10732962Y-7565390D01*
X10742486Y-7574914D01*
X10752010Y-7593962D01*
X10752010Y-7641581D01*
X10742486Y-7660628D01*
X10732962Y-7670152D01*
X10713914Y-7679676D01*
X10656771Y-7679676D01*
X10637724Y-7670152D01*
X10628200Y-7660628D01*
X10923438Y-7479676D02*
X10885343Y-7479676D01*
X10866295Y-7489200D01*
X10856771Y-7498724D01*
X10837724Y-7527295D01*
X10828200Y-7565390D01*
X10828200Y-7641581D01*
X10837724Y-7660628D01*
X10847248Y-7670152D01*
X10866295Y-7679676D01*
X10904390Y-7679676D01*
X10923438Y-7670152D01*
X10932962Y-7660628D01*
X10942486Y-7641581D01*
X10942486Y-7593962D01*
X10932962Y-7574914D01*
X10923438Y-7565390D01*
X10904390Y-7555867D01*
X10866295Y-7555867D01*
X10847248Y-7565390D01*
X10837724Y-7574914D01*
X10828200Y-7593962D01*
X11018676Y-7479676D02*
X11018676Y-7517771D01*
X11094867Y-7479676D02*
X11094867Y-7517771D01*
X11390105Y-7755867D02*
X11380581Y-7746343D01*
X11361533Y-7717771D01*
X11352009Y-7698724D01*
X11342486Y-7670152D01*
X11332962Y-7622533D01*
X11332962Y-7584438D01*
X11342486Y-7536819D01*
X11352009Y-7508248D01*
X11361533Y-7489200D01*
X11380581Y-7460628D01*
X11390105Y-7451105D01*
X11504390Y-7479676D02*
X11523438Y-7479676D01*
X11542486Y-7489200D01*
X11552009Y-7498724D01*
X11561533Y-7517771D01*
X11571057Y-7555867D01*
X11571057Y-7603486D01*
X11561533Y-7641581D01*
X11552009Y-7660628D01*
X11542486Y-7670152D01*
X11523438Y-7679676D01*
X11504390Y-7679676D01*
X11485343Y-7670152D01*
X11475819Y-7660628D01*
X11466295Y-7641581D01*
X11456771Y-7603486D01*
X11456771Y-7555867D01*
X11466295Y-7517771D01*
X11475819Y-7498724D01*
X11485343Y-7489200D01*
X11504390Y-7479676D01*
X11809152Y-7679676D02*
X11809152Y-7479676D01*
X11894867Y-7679676D02*
X11894867Y-7574914D01*
X11885343Y-7555867D01*
X11866295Y-7546343D01*
X11837724Y-7546343D01*
X11818676Y-7555867D01*
X11809152Y-7565390D01*
X12018676Y-7679676D02*
X11999628Y-7670152D01*
X11990105Y-7660628D01*
X11980581Y-7641581D01*
X11980581Y-7584438D01*
X11990105Y-7565390D01*
X11999628Y-7555867D01*
X12018676Y-7546343D01*
X12047248Y-7546343D01*
X12066295Y-7555867D01*
X12075819Y-7565390D01*
X12085343Y-7584438D01*
X12085343Y-7641581D01*
X12075819Y-7660628D01*
X12066295Y-7670152D01*
X12047248Y-7679676D01*
X12018676Y-7679676D01*
X12199628Y-7679676D02*
X12180581Y-7670152D01*
X12171057Y-7651105D01*
X12171057Y-7479676D01*
X12352009Y-7670152D02*
X12332962Y-7679676D01*
X12294867Y-7679676D01*
X12275819Y-7670152D01*
X12266295Y-7651105D01*
X12266295Y-7574914D01*
X12275819Y-7555867D01*
X12294867Y-7546343D01*
X12332962Y-7546343D01*
X12352009Y-7555867D01*
X12361533Y-7574914D01*
X12361533Y-7593962D01*
X12266295Y-7613009D01*
X12437724Y-7670152D02*
X12456771Y-7679676D01*
X12494867Y-7679676D01*
X12513914Y-7670152D01*
X12523438Y-7651105D01*
X12523438Y-7641581D01*
X12513914Y-7622533D01*
X12494867Y-7613009D01*
X12466295Y-7613009D01*
X12447248Y-7603486D01*
X12437724Y-7584438D01*
X12437724Y-7574914D01*
X12447248Y-7555867D01*
X12466295Y-7546343D01*
X12494867Y-7546343D01*
X12513914Y-7555867D01*
X12761533Y-7603486D02*
X12913914Y-7603486D01*
X12837724Y-7679676D02*
X12837724Y-7527295D01*
X13247248Y-7546343D02*
X13247248Y-7679676D01*
X13199628Y-7470152D02*
X13152009Y-7613009D01*
X13275819Y-7613009D01*
X13494867Y-7670152D02*
X13513914Y-7679676D01*
X13552009Y-7679676D01*
X13571057Y-7670152D01*
X13580581Y-7651105D01*
X13580581Y-7641581D01*
X13571057Y-7622533D01*
X13552009Y-7613009D01*
X13523438Y-7613009D01*
X13504390Y-7603486D01*
X13494867Y-7584438D01*
X13494867Y-7574914D01*
X13504390Y-7555867D01*
X13523438Y-7546343D01*
X13552009Y-7546343D01*
X13571057Y-7555867D01*
X13694867Y-7679676D02*
X13675819Y-7670152D01*
X13666295Y-7651105D01*
X13666295Y-7479676D01*
X13799628Y-7679676D02*
X13780581Y-7670152D01*
X13771057Y-7660628D01*
X13761533Y-7641581D01*
X13761533Y-7584438D01*
X13771057Y-7565390D01*
X13780581Y-7555867D01*
X13799628Y-7546343D01*
X13828200Y-7546343D01*
X13847248Y-7555867D01*
X13856771Y-7565390D01*
X13866295Y-7584438D01*
X13866295Y-7641581D01*
X13856771Y-7660628D01*
X13847248Y-7670152D01*
X13828200Y-7679676D01*
X13799628Y-7679676D01*
X13923438Y-7546343D02*
X13999628Y-7546343D01*
X13952009Y-7479676D02*
X13952009Y-7651105D01*
X13961533Y-7670152D01*
X13980581Y-7679676D01*
X13999628Y-7679676D01*
X14056771Y-7670152D02*
X14075819Y-7679676D01*
X14113914Y-7679676D01*
X14132962Y-7670152D01*
X14142486Y-7651105D01*
X14142486Y-7641581D01*
X14132962Y-7622533D01*
X14113914Y-7613009D01*
X14085343Y-7613009D01*
X14066295Y-7603486D01*
X14056771Y-7584438D01*
X14056771Y-7574914D01*
X14066295Y-7555867D01*
X14085343Y-7546343D01*
X14113914Y-7546343D01*
X14132962Y-7555867D01*
X14209152Y-7755867D02*
X14218676Y-7746343D01*
X14237724Y-7717771D01*
X14247248Y-7698724D01*
X14256771Y-7670152D01*
X14266295Y-7622533D01*
X14266295Y-7584438D01*
X14256771Y-7536819D01*
X14247248Y-7508248D01*
X14237724Y-7489200D01*
X14218676Y-7460628D01*
X14209152Y-7451105D01*
D14*
X7773200Y-7808200D02*
X7773200Y-7898200D01*
X7728200Y-7853200D02*
X7818200Y-7853200D01*
D11*
X8113914Y-7743676D02*
X8132962Y-7743676D01*
X8152009Y-7753200D01*
X8161533Y-7762724D01*
X8171057Y-7781771D01*
X8180581Y-7819867D01*
X8180581Y-7867486D01*
X8171057Y-7905581D01*
X8161533Y-7924628D01*
X8152009Y-7934152D01*
X8132962Y-7943676D01*
X8113914Y-7943676D01*
X8094867Y-7934152D01*
X8085343Y-7924628D01*
X8075819Y-7905581D01*
X8066295Y-7867486D01*
X8066295Y-7819867D01*
X8075819Y-7781771D01*
X8085343Y-7762724D01*
X8094867Y-7753200D01*
X8113914Y-7743676D01*
X8266295Y-7924628D02*
X8275819Y-7934152D01*
X8266295Y-7943676D01*
X8256771Y-7934152D01*
X8266295Y-7924628D01*
X8266295Y-7943676D01*
X8371057Y-7943676D02*
X8409152Y-7943676D01*
X8428200Y-7934152D01*
X8437724Y-7924628D01*
X8456771Y-7896057D01*
X8466295Y-7857962D01*
X8466295Y-7781771D01*
X8456771Y-7762724D01*
X8447248Y-7753200D01*
X8428200Y-7743676D01*
X8390105Y-7743676D01*
X8371057Y-7753200D01*
X8361533Y-7762724D01*
X8352009Y-7781771D01*
X8352009Y-7829390D01*
X8361533Y-7848438D01*
X8371057Y-7857962D01*
X8390105Y-7867486D01*
X8428200Y-7867486D01*
X8447248Y-7857962D01*
X8456771Y-7848438D01*
X8466295Y-7829390D01*
X8590105Y-7743676D02*
X8609152Y-7743676D01*
X8628200Y-7753200D01*
X8637724Y-7762724D01*
X8647248Y-7781771D01*
X8656771Y-7819867D01*
X8656771Y-7867486D01*
X8647248Y-7905581D01*
X8637724Y-7924628D01*
X8628200Y-7934152D01*
X8609152Y-7943676D01*
X8590105Y-7943676D01*
X8571057Y-7934152D01*
X8561533Y-7924628D01*
X8552010Y-7905581D01*
X8542486Y-7867486D01*
X8542486Y-7819867D01*
X8552010Y-7781771D01*
X8561533Y-7762724D01*
X8571057Y-7753200D01*
X8590105Y-7743676D01*
X8780581Y-7743676D02*
X8799629Y-7743676D01*
X8818676Y-7753200D01*
X8828200Y-7762724D01*
X8837724Y-7781771D01*
X8847248Y-7819867D01*
X8847248Y-7867486D01*
X8837724Y-7905581D01*
X8828200Y-7924628D01*
X8818676Y-7934152D01*
X8799629Y-7943676D01*
X8780581Y-7943676D01*
X8761533Y-7934152D01*
X8752010Y-7924628D01*
X8742486Y-7905581D01*
X8732962Y-7867486D01*
X8732962Y-7819867D01*
X8742486Y-7781771D01*
X8752010Y-7762724D01*
X8761533Y-7753200D01*
X8780581Y-7743676D01*
X8932962Y-7943676D02*
X8932962Y-7810343D01*
X8932962Y-7829390D02*
X8942486Y-7819867D01*
X8961533Y-7810343D01*
X8990105Y-7810343D01*
X9009152Y-7819867D01*
X9018676Y-7838914D01*
X9018676Y-7943676D01*
X9018676Y-7838914D02*
X9028200Y-7819867D01*
X9047248Y-7810343D01*
X9075819Y-7810343D01*
X9094867Y-7819867D01*
X9104390Y-7838914D01*
X9104390Y-7943676D01*
X9199629Y-7943676D02*
X9199629Y-7810343D01*
X9199629Y-7829390D02*
X9209152Y-7819867D01*
X9228200Y-7810343D01*
X9256771Y-7810343D01*
X9275819Y-7819867D01*
X9285343Y-7838914D01*
X9285343Y-7943676D01*
X9285343Y-7838914D02*
X9294867Y-7819867D01*
X9313914Y-7810343D01*
X9342486Y-7810343D01*
X9361533Y-7819867D01*
X9371057Y-7838914D01*
X9371057Y-7943676D01*
X9761533Y-7734152D02*
X9590105Y-7991295D01*
X10018676Y-7743676D02*
X10037724Y-7743676D01*
X10056771Y-7753200D01*
X10066295Y-7762724D01*
X10075819Y-7781771D01*
X10085343Y-7819867D01*
X10085343Y-7867486D01*
X10075819Y-7905581D01*
X10066295Y-7924628D01*
X10056771Y-7934152D01*
X10037724Y-7943676D01*
X10018676Y-7943676D01*
X9999629Y-7934152D01*
X9990105Y-7924628D01*
X9980581Y-7905581D01*
X9971057Y-7867486D01*
X9971057Y-7819867D01*
X9980581Y-7781771D01*
X9990105Y-7762724D01*
X9999629Y-7753200D01*
X10018676Y-7743676D01*
X10171057Y-7924628D02*
X10180581Y-7934152D01*
X10171057Y-7943676D01*
X10161533Y-7934152D01*
X10171057Y-7924628D01*
X10171057Y-7943676D01*
X10304390Y-7743676D02*
X10323438Y-7743676D01*
X10342486Y-7753200D01*
X10352010Y-7762724D01*
X10361533Y-7781771D01*
X10371057Y-7819867D01*
X10371057Y-7867486D01*
X10361533Y-7905581D01*
X10352010Y-7924628D01*
X10342486Y-7934152D01*
X10323438Y-7943676D01*
X10304390Y-7943676D01*
X10285343Y-7934152D01*
X10275819Y-7924628D01*
X10266295Y-7905581D01*
X10256771Y-7867486D01*
X10256771Y-7819867D01*
X10266295Y-7781771D01*
X10275819Y-7762724D01*
X10285343Y-7753200D01*
X10304390Y-7743676D01*
X10437724Y-7743676D02*
X10561533Y-7743676D01*
X10494867Y-7819867D01*
X10523438Y-7819867D01*
X10542486Y-7829390D01*
X10552010Y-7838914D01*
X10561533Y-7857962D01*
X10561533Y-7905581D01*
X10552010Y-7924628D01*
X10542486Y-7934152D01*
X10523438Y-7943676D01*
X10466295Y-7943676D01*
X10447248Y-7934152D01*
X10437724Y-7924628D01*
X10742486Y-7743676D02*
X10647248Y-7743676D01*
X10637724Y-7838914D01*
X10647248Y-7829390D01*
X10666295Y-7819867D01*
X10713914Y-7819867D01*
X10732962Y-7829390D01*
X10742486Y-7838914D01*
X10752010Y-7857962D01*
X10752010Y-7905581D01*
X10742486Y-7924628D01*
X10732962Y-7934152D01*
X10713914Y-7943676D01*
X10666295Y-7943676D01*
X10647248Y-7934152D01*
X10637724Y-7924628D01*
X10923438Y-7810343D02*
X10923438Y-7943676D01*
X10875819Y-7734152D02*
X10828200Y-7877009D01*
X10952010Y-7877009D01*
X11018676Y-7743676D02*
X11018676Y-7781771D01*
X11094867Y-7743676D02*
X11094867Y-7781771D01*
X11390105Y-8019867D02*
X11380581Y-8010343D01*
X11361533Y-7981771D01*
X11352009Y-7962724D01*
X11342486Y-7934152D01*
X11332962Y-7886533D01*
X11332962Y-7848438D01*
X11342486Y-7800819D01*
X11352009Y-7772248D01*
X11361533Y-7753200D01*
X11380581Y-7724628D01*
X11390105Y-7715105D01*
X11552009Y-7810343D02*
X11552009Y-7943676D01*
X11504390Y-7734152D02*
X11456771Y-7877009D01*
X11580581Y-7877009D01*
X11809152Y-7943676D02*
X11809152Y-7743676D01*
X11894867Y-7943676D02*
X11894867Y-7838914D01*
X11885343Y-7819867D01*
X11866295Y-7810343D01*
X11837724Y-7810343D01*
X11818676Y-7819867D01*
X11809152Y-7829390D01*
X12018676Y-7943676D02*
X11999628Y-7934152D01*
X11990105Y-7924628D01*
X11980581Y-7905581D01*
X11980581Y-7848438D01*
X11990105Y-7829390D01*
X11999628Y-7819867D01*
X12018676Y-7810343D01*
X12047248Y-7810343D01*
X12066295Y-7819867D01*
X12075819Y-7829390D01*
X12085343Y-7848438D01*
X12085343Y-7905581D01*
X12075819Y-7924628D01*
X12066295Y-7934152D01*
X12047248Y-7943676D01*
X12018676Y-7943676D01*
X12199628Y-7943676D02*
X12180581Y-7934152D01*
X12171057Y-7915105D01*
X12171057Y-7743676D01*
X12352009Y-7934152D02*
X12332962Y-7943676D01*
X12294867Y-7943676D01*
X12275819Y-7934152D01*
X12266295Y-7915105D01*
X12266295Y-7838914D01*
X12275819Y-7819867D01*
X12294867Y-7810343D01*
X12332962Y-7810343D01*
X12352009Y-7819867D01*
X12361533Y-7838914D01*
X12361533Y-7857962D01*
X12266295Y-7877009D01*
X12437724Y-7934152D02*
X12456771Y-7943676D01*
X12494867Y-7943676D01*
X12513914Y-7934152D01*
X12523438Y-7915105D01*
X12523438Y-7905581D01*
X12513914Y-7886533D01*
X12494867Y-7877009D01*
X12466295Y-7877009D01*
X12447248Y-7867486D01*
X12437724Y-7848438D01*
X12437724Y-7838914D01*
X12447248Y-7819867D01*
X12466295Y-7810343D01*
X12494867Y-7810343D01*
X12513914Y-7819867D01*
X12590105Y-8019867D02*
X12599628Y-8010343D01*
X12618676Y-7981771D01*
X12628200Y-7962724D01*
X12637724Y-7934152D01*
X12647248Y-7886533D01*
X12647248Y-7848438D01*
X12637724Y-7800819D01*
X12628200Y-7772248D01*
X12618676Y-7753200D01*
X12599628Y-7724628D01*
X12590105Y-7715105D01*
D10*
X7803556Y-8152556D02*
X7803556Y-8081844D01*
X7732844Y-8081844D01*
X7732844Y-8152556D01*
X7803556Y-8152556D01*
D11*
X8180581Y-8207676D02*
X8066295Y-8207676D01*
X8123438Y-8207676D02*
X8123438Y-8007676D01*
X8104390Y-8036248D01*
X8085343Y-8055295D01*
X8066295Y-8064819D01*
X8266295Y-8188628D02*
X8275819Y-8198152D01*
X8266295Y-8207676D01*
X8256771Y-8198152D01*
X8266295Y-8188628D01*
X8266295Y-8207676D01*
X8399629Y-8007676D02*
X8418676Y-8007676D01*
X8437724Y-8017200D01*
X8447248Y-8026724D01*
X8456771Y-8045771D01*
X8466295Y-8083867D01*
X8466295Y-8131486D01*
X8456771Y-8169581D01*
X8447248Y-8188628D01*
X8437724Y-8198152D01*
X8418676Y-8207676D01*
X8399629Y-8207676D01*
X8380581Y-8198152D01*
X8371057Y-8188628D01*
X8361533Y-8169581D01*
X8352009Y-8131486D01*
X8352009Y-8083867D01*
X8361533Y-8045771D01*
X8371057Y-8026724D01*
X8380581Y-8017200D01*
X8399629Y-8007676D01*
X8590105Y-8007676D02*
X8609152Y-8007676D01*
X8628200Y-8017200D01*
X8637724Y-8026724D01*
X8647248Y-8045771D01*
X8656771Y-8083867D01*
X8656771Y-8131486D01*
X8647248Y-8169581D01*
X8637724Y-8188628D01*
X8628200Y-8198152D01*
X8609152Y-8207676D01*
X8590105Y-8207676D01*
X8571057Y-8198152D01*
X8561533Y-8188628D01*
X8552010Y-8169581D01*
X8542486Y-8131486D01*
X8542486Y-8083867D01*
X8552010Y-8045771D01*
X8561533Y-8026724D01*
X8571057Y-8017200D01*
X8590105Y-8007676D01*
X8780581Y-8007676D02*
X8799629Y-8007676D01*
X8818676Y-8017200D01*
X8828200Y-8026724D01*
X8837724Y-8045771D01*
X8847248Y-8083867D01*
X8847248Y-8131486D01*
X8837724Y-8169581D01*
X8828200Y-8188628D01*
X8818676Y-8198152D01*
X8799629Y-8207676D01*
X8780581Y-8207676D01*
X8761533Y-8198152D01*
X8752010Y-8188628D01*
X8742486Y-8169581D01*
X8732962Y-8131486D01*
X8732962Y-8083867D01*
X8742486Y-8045771D01*
X8752010Y-8026724D01*
X8761533Y-8017200D01*
X8780581Y-8007676D01*
X8932962Y-8207676D02*
X8932962Y-8074343D01*
X8932962Y-8093390D02*
X8942486Y-8083867D01*
X8961533Y-8074343D01*
X8990105Y-8074343D01*
X9009152Y-8083867D01*
X9018676Y-8102914D01*
X9018676Y-8207676D01*
X9018676Y-8102914D02*
X9028200Y-8083867D01*
X9047248Y-8074343D01*
X9075819Y-8074343D01*
X9094867Y-8083867D01*
X9104390Y-8102914D01*
X9104390Y-8207676D01*
X9199629Y-8207676D02*
X9199629Y-8074343D01*
X9199629Y-8093390D02*
X9209152Y-8083867D01*
X9228200Y-8074343D01*
X9256771Y-8074343D01*
X9275819Y-8083867D01*
X9285343Y-8102914D01*
X9285343Y-8207676D01*
X9285343Y-8102914D02*
X9294867Y-8083867D01*
X9313914Y-8074343D01*
X9342486Y-8074343D01*
X9361533Y-8083867D01*
X9371057Y-8102914D01*
X9371057Y-8207676D01*
X9761533Y-7998152D02*
X9590105Y-8255295D01*
X10018676Y-8007676D02*
X10037724Y-8007676D01*
X10056771Y-8017200D01*
X10066295Y-8026724D01*
X10075819Y-8045771D01*
X10085343Y-8083867D01*
X10085343Y-8131486D01*
X10075819Y-8169581D01*
X10066295Y-8188628D01*
X10056771Y-8198152D01*
X10037724Y-8207676D01*
X10018676Y-8207676D01*
X9999629Y-8198152D01*
X9990105Y-8188628D01*
X9980581Y-8169581D01*
X9971057Y-8131486D01*
X9971057Y-8083867D01*
X9980581Y-8045771D01*
X9990105Y-8026724D01*
X9999629Y-8017200D01*
X10018676Y-8007676D01*
X10171057Y-8188628D02*
X10180581Y-8198152D01*
X10171057Y-8207676D01*
X10161533Y-8198152D01*
X10171057Y-8188628D01*
X10171057Y-8207676D01*
X10304390Y-8007676D02*
X10323438Y-8007676D01*
X10342486Y-8017200D01*
X10352010Y-8026724D01*
X10361533Y-8045771D01*
X10371057Y-8083867D01*
X10371057Y-8131486D01*
X10361533Y-8169581D01*
X10352010Y-8188628D01*
X10342486Y-8198152D01*
X10323438Y-8207676D01*
X10304390Y-8207676D01*
X10285343Y-8198152D01*
X10275819Y-8188628D01*
X10266295Y-8169581D01*
X10256771Y-8131486D01*
X10256771Y-8083867D01*
X10266295Y-8045771D01*
X10275819Y-8026724D01*
X10285343Y-8017200D01*
X10304390Y-8007676D01*
X10437724Y-8007676D02*
X10561533Y-8007676D01*
X10494867Y-8083867D01*
X10523438Y-8083867D01*
X10542486Y-8093390D01*
X10552010Y-8102914D01*
X10561533Y-8121962D01*
X10561533Y-8169581D01*
X10552010Y-8188628D01*
X10542486Y-8198152D01*
X10523438Y-8207676D01*
X10466295Y-8207676D01*
X10447248Y-8198152D01*
X10437724Y-8188628D01*
X10656771Y-8207676D02*
X10694867Y-8207676D01*
X10713914Y-8198152D01*
X10723438Y-8188628D01*
X10742486Y-8160057D01*
X10752010Y-8121962D01*
X10752010Y-8045771D01*
X10742486Y-8026724D01*
X10732962Y-8017200D01*
X10713914Y-8007676D01*
X10675819Y-8007676D01*
X10656771Y-8017200D01*
X10647248Y-8026724D01*
X10637724Y-8045771D01*
X10637724Y-8093390D01*
X10647248Y-8112438D01*
X10656771Y-8121962D01*
X10675819Y-8131486D01*
X10713914Y-8131486D01*
X10732962Y-8121962D01*
X10742486Y-8112438D01*
X10752010Y-8093390D01*
X10923438Y-8074343D02*
X10923438Y-8207676D01*
X10875819Y-7998152D02*
X10828200Y-8141009D01*
X10952010Y-8141009D01*
X11018676Y-8007676D02*
X11018676Y-8045771D01*
X11094867Y-8007676D02*
X11094867Y-8045771D01*
X11390105Y-8283867D02*
X11380581Y-8274343D01*
X11361533Y-8245771D01*
X11352009Y-8226724D01*
X11342486Y-8198152D01*
X11332962Y-8150533D01*
X11332962Y-8112438D01*
X11342486Y-8064819D01*
X11352009Y-8036248D01*
X11361533Y-8017200D01*
X11380581Y-7988628D01*
X11390105Y-7979105D01*
X11456771Y-8026724D02*
X11466295Y-8017200D01*
X11485343Y-8007676D01*
X11532962Y-8007676D01*
X11552009Y-8017200D01*
X11561533Y-8026724D01*
X11571057Y-8045771D01*
X11571057Y-8064819D01*
X11561533Y-8093390D01*
X11447248Y-8207676D01*
X11571057Y-8207676D01*
X11647248Y-8026724D02*
X11656771Y-8017200D01*
X11675819Y-8007676D01*
X11723438Y-8007676D01*
X11742486Y-8017200D01*
X11752009Y-8026724D01*
X11761533Y-8045771D01*
X11761533Y-8064819D01*
X11752009Y-8093390D01*
X11637724Y-8207676D01*
X11761533Y-8207676D01*
X11999628Y-8207676D02*
X11999628Y-8007676D01*
X12085343Y-8207676D02*
X12085343Y-8102914D01*
X12075819Y-8083867D01*
X12056771Y-8074343D01*
X12028200Y-8074343D01*
X12009152Y-8083867D01*
X11999628Y-8093390D01*
X12209152Y-8207676D02*
X12190105Y-8198152D01*
X12180581Y-8188628D01*
X12171057Y-8169581D01*
X12171057Y-8112438D01*
X12180581Y-8093390D01*
X12190105Y-8083867D01*
X12209152Y-8074343D01*
X12237724Y-8074343D01*
X12256771Y-8083867D01*
X12266295Y-8093390D01*
X12275819Y-8112438D01*
X12275819Y-8169581D01*
X12266295Y-8188628D01*
X12256771Y-8198152D01*
X12237724Y-8207676D01*
X12209152Y-8207676D01*
X12390105Y-8207676D02*
X12371057Y-8198152D01*
X12361533Y-8179105D01*
X12361533Y-8007676D01*
X12542486Y-8198152D02*
X12523438Y-8207676D01*
X12485343Y-8207676D01*
X12466295Y-8198152D01*
X12456771Y-8179105D01*
X12456771Y-8102914D01*
X12466295Y-8083867D01*
X12485343Y-8074343D01*
X12523438Y-8074343D01*
X12542486Y-8083867D01*
X12552009Y-8102914D01*
X12552009Y-8121962D01*
X12456771Y-8141009D01*
X12628200Y-8198152D02*
X12647248Y-8207676D01*
X12685343Y-8207676D01*
X12704390Y-8198152D01*
X12713914Y-8179105D01*
X12713914Y-8169581D01*
X12704390Y-8150533D01*
X12685343Y-8141009D01*
X12656771Y-8141009D01*
X12637724Y-8131486D01*
X12628200Y-8112438D01*
X12628200Y-8102914D01*
X12637724Y-8083867D01*
X12656771Y-8074343D01*
X12685343Y-8074343D01*
X12704390Y-8083867D01*
X12780581Y-8283867D02*
X12790105Y-8274343D01*
X12809152Y-8245771D01*
X12818676Y-8226724D01*
X12828200Y-8198152D01*
X12837724Y-8150533D01*
X12837724Y-8112438D01*
X12828200Y-8064819D01*
X12818676Y-8036248D01*
X12809152Y-8017200D01*
X12790105Y-7988628D01*
X12780581Y-7979105D01*
M02*
