M48
; DRILL file {KiCad (6.0.7)} date Tue Sep 27 17:10:26 2022
; FORMAT={-:-/ absolute / inch / decimal}
; #@! TF.CreationDate,2022-09-27T17:10:26+08:00
; #@! TF.GenerationSoftware,Kicad,Pcbnew,(6.0.7)
; #@! TF.FileFunction,Plated,1,2,PTH
FMAT,2
INCH
; #@! TA.AperFunction,Plated,PTH,ViaDrill
T1C0.0157
; #@! TA.AperFunction,Plated,PTH,ComponentDrill
T2C0.0236
; #@! TA.AperFunction,Plated,PTH,ComponentDrill
T3C0.0354
; #@! TA.AperFunction,Plated,PTH,ComponentDrill
T4C0.0394
%
G90
G05
T1
X3.51Y-2.3
X3.51Y-2.35
X3.51Y-2.4
X3.5134Y-2.2
X3.5134Y-2.25
X3.74Y-2.48
X3.75Y-2.21
X3.75Y-2.26
X3.99Y-2.49
X3.99Y-2.54
X4.0Y-2.31
X4.0Y-2.35
X4.0Y-2.39
X4.0Y-2.44
T3
X3.6646Y-1.6749
X3.6646Y-1.9112
X3.8615Y-1.6749
X3.8615Y-1.9112
T4
X3.32Y-1.4
X3.32Y-1.5
X3.32Y-1.6
X3.32Y-1.7
X3.32Y-1.8
X3.32Y-1.9
X3.32Y-2.0
X3.32Y-2.1
X3.32Y-2.2
X3.32Y-2.3
X3.32Y-2.4
X4.26Y-1.4
X4.26Y-1.5
X4.26Y-1.6
X4.26Y-1.7
X4.26Y-1.8
X4.26Y-1.9
X4.26Y-2.0
X4.26Y-2.1
X4.26Y-2.2
X4.26Y-2.3
X4.26Y-2.4
T2
G00X3.5899Y-1.3505
M15
G01X3.5899Y-1.3269
M16
G05
G00X3.5899Y-1.5249
M15
G01X3.5899Y-1.4816
M16
G05
G00X3.9301Y-1.3505
M15
G01X3.9301Y-1.3269
M16
G05
G00X3.9301Y-1.5249
M15
G01X3.9301Y-1.4816
M16
G05
T0
M30
